<?xml version="1.0" encoding="utf-8"?>
<!-- Generator: Adobe Illustrator 15.0.0, SVG Export Plug-In . SVG Version: 6.00 Build 0)  -->
<!DOCTYPE svg PUBLIC "-//W3C//DTD SVG 1.1//EN" "http://www.w3.org/Graphics/SVG/1.1/DTD/svg11.dtd">
<svg xmlns="http://www.w3.org/2000/svg" xmlns:xlink="http://www.w3.org/1999/xlink" version="1.1" id="Layer_1" x="0px" y="0px" width="26px" height="26px" viewBox="0 0 26 26" enable-background="new 0 0 26 26" xml:space="preserve">
<g>
	<path fill="#000000" d="M17,8.943c2.236,0,4.057,1.819,4.057,4.057s-1.82,4.057-4.057,4.057S12.944,15.237,12.944,13   S14.764,8.943,17,8.943 M17,7.188c-3.21,0-5.813,2.603-5.813,5.813S13.79,18.813,17,18.813S22.813,16.21,22.813,13   S20.21,7.188,17,7.188L17,7.188z"/>
</g>
<g>
	<circle fill="#000000" cx="9" cy="13" r="5.813"/>
</g>

<g>
	<g>
		<path fill="#000000" d="M22.101,5.999c1.048,0,1.899,0.853,1.899,1.9v10.201c0,1.048-0.852,1.9-1.899,1.9H3.899    c-1.048,0-1.9-0.853-1.9-1.9V7.899c0-1.048,0.852-1.9,1.9-1.9H22.101 M22.101,4H3.899C1.748,4,0,5.747,0,7.899v10.201    C0,20.253,1.748,22,3.899,22h18.201C24.252,22,26,20.253,26,18.101V7.899C26,5.747,24.252,4,22.101,4L22.101,4z"/>
	</g>
</g>
</svg>
