<?xml version="1.0" encoding="utf-8"?>
<!-- Generator: Adobe Illustrator 15.0.0, SVG Export Plug-In . SVG Version: 6.00 Build 0)  -->
<!DOCTYPE svg PUBLIC "-//W3C//DTD SVG 1.1//EN" "http://www.w3.org/Graphics/SVG/1.1/DTD/svg11.dtd">
<svg xmlns="http://www.w3.org/2000/svg" xmlns:xlink="http://www.w3.org/1999/xlink" version="1.1" id="Layer_1" x="0px" y="0px" width="26px" height="26px" viewBox="0 0 26 26" enable-background="new 0 0 26 26" xml:space="preserve">

<g>
	<polygon fill="#000000" points="20.094,13.706 21.613,13.706 21.09,11.098  "/>
	<path fill="#000000" d="M22.101,4H3.899C1.748,4,0,5.747,0,7.899v10.201C0,20.253,1.748,22,3.899,22h18.201   C24.252,22,26,20.253,26,18.101V7.899C26,5.747,24.252,4,22.101,4z M4.243,9.123c0.725,0,1.003,0.68,1.003,0.68l0.617,3.132   c-0.841-2.709-4.454-3.812-4.454-3.812S3.518,9.123,4.243,9.123z M4.914,16.011l-1.471-5.59c0,0,1.549,0.784,2.504,2.924   c0.041,0.26,0.137,0.679,0.137,0.679L7.76,9.107h1.96l-2.788,6.903H4.914z M11.19,16.011H9.358l1.086-6.903h1.854L11.19,16.011z    M14.305,16.227c-1.313,0-1.991-0.401-1.991-0.401l0.317-1.463c0,0,0.699,0.403,1.759,0.403c1.058,0,1.206-0.444,1.206-0.635   c0-1.121-2.54-0.823-2.54-3.004c0-1.206,0.995-2.159,2.921-2.159c0.849,0,1.717,0.339,1.717,0.339l-0.297,1.525   c0,0-0.678-0.446-1.271-0.446c-0.911,0-1.229,0.298-1.229,0.698c0,0.783,2.542,0.91,2.542,2.666   C17.439,15.211,15.617,16.227,14.305,16.227z M22.076,16.011l-0.197-0.985h-2.293l-0.377,0.985H17.39l3.007-6.903h1.927   l1.419,6.903H22.076z"/>
</g>
</svg>
